<?xml version="1.0" encoding="utf-8"?>
<!-- Generator: Adobe Illustrator 25.2.0, SVG Export Plug-In . SVG Version: 6.00 Build 0)  -->
<svg version="1.1" id="Layer_1" xmlns="http://www.w3.org/2000/svg" xmlns:xlink="http://www.w3.org/1999/xlink" x="0px" y="0px"
	 viewBox="0 0 500 500" style="enable-background:new 0 0 500 500;" xml:space="preserve">
<style type="text/css">
	.st0{fill:#27DEBF;}
	.st1{opacity:0.6;}
	.st2{opacity:0.3;enable-background:new    ;}
	.st3{opacity:0.5;enable-background:new    ;}
	.st4{fill:#263238;}
	.st5{opacity:0.7;enable-background:new    ;}
	.st6{fill:#FAFAFA;}
	.st7{fill:#E0E0E0;}
	.st8{fill:#F0F0F0;}
	.st9{opacity:0.4;}
	.st10{fill:#FFFFFF;}
	.st11{opacity:0.15;enable-background:new    ;}
	.st12{opacity:0.5;fill:#FFFFFF;enable-background:new    ;}
	.st13{fill:#455A64;}
	.st14{fill:#37474F;}
	.st15{opacity:0.4;fill:#FFFFFF;enable-background:new    ;}
	.st16{opacity:0.2;enable-background:new    ;}
	.st17{opacity:0.1;enable-background:new    ;}
	.st18{fill:#FFA8A7;}
	.st19{fill:#F28F8F;}
	.st20{opacity:0.4;enable-background:new    ;}
	.st21{opacity:0.15;fill:none;stroke:#000000;stroke-width:1;stroke-miterlimit:10.0001;enable-background:new    ;}
</style>
<g id="Device">
	<g id="Device_1_">
		<g id="XMLID_1341_">
			<g id="XMLID_1346_">
				<path id="XMLID_1347_" class="st0" d="M216.2,356.6l34.9-20.2c3.6-2.1,5.4-4.8,5.4-7.5s0-4.9,0-4.9l-36.3-20.4
					c-1.9-1.1-3.5-3.8-3.5-6v-43.1l-61,35.3v43.1c0,2.2,1.6,4.9,3.5,6l30.8,17.8C197.3,360.8,209,360.8,216.2,356.6z"/>
			</g>
			<g id="XMLID_1608_" class="st1">
				<path id="XMLID_1609_" d="M216.2,356.6l34.9-20.2c3.6-2.1,5.4-4.8,5.4-7.5s0-4.9,0-4.9l-36.3-20.4c-1.9-1.1-3.5-3.8-3.5-6v-43.1
					l-61,35.3v43.1c0,2.2,1.6,4.9,3.5,6l30.8,17.8C197.3,360.8,209,360.8,216.2,356.6z"/>
			</g>
			<path id="XMLID_1345_" class="st2" d="M170.4,340.5v4.8l-11.2-6.5c-1.9-1.1-3.5-3.8-3.5-6v-43.1l11.6-6.7c0.2,3,0.5,6,0.7,9
				l-8.1,4.7v33.6c0,2.2,1.6,4.9,3.5,6L170.4,340.5z"/>
			<path id="XMLID_1344_" class="st0" d="M160,330.4c0,2.2,1.6,4.9,3.5,6l26.6,15.3c7.2,4.2,18.9,4.2,26.1,0l34.9-20.2
				c7.2-4.2,7.2-10.9,0-15.1l-26.6-15.4c-1.9-1.1-3.5-3.8-3.5-6v-33.7l-61,35.3L160,330.4L160,330.4z"/>
			<path id="XMLID_1607_" class="st2" d="M160,330.4c0,2.2,1.6,4.9,3.5,6l26.6,15.3c7.2,4.2,18.9,4.2,26.1,0l34.9-20.2
				c7.2-4.2,7.2-10.9,0-15.1l-26.6-15.4c-1.9-1.1-3.5-3.8-3.5-6v-33.7l-61,35.3L160,330.4L160,330.4z"/>
			<path id="XMLID_1343_" class="st3" d="M231.6,305.3L231.6,305.3l-7.1-4.1c-1.9-1.1-3.5-3.8-3.5-6v-33.7l-61,35.3v33.7
				c0,2.2,1.6,4.9,3.5,6l7,4L231.6,305.3z"/>
			<path id="XMLID_1342_" class="st0" d="M256.5,324.1c0,0,0,2.1,0,4.9c0,2.7-1.8,5.4-5.4,7.5l-34.9,20.2c-3.4,2-7.9,3-12.4,3.1
				v-4.8c4.5-0.1,9-1.1,12.4-3.1l34.9-20.2C254.7,329.5,256.5,326.8,256.5,324.1z"/>
			<path id="XMLID_1610_" class="st3" d="M256.5,324.1c0,0,0,2.1,0,4.9c0,2.7-1.8,5.4-5.4,7.5l-34.9,20.2c-3.4,2-7.9,3-12.4,3.1
				v-4.8c4.5-0.1,9-1.1,12.4-3.1l34.9-20.2C254.7,329.5,256.5,326.8,256.5,324.1z"/>
		</g>
		<path id="XMLID_1340_" class="st0" d="M62,372.3c2.3,1.3,6,1.2,8.4-0.2c30-17.3,206-118.9,236-136.3c2.4-1.4,4.4-4.8,4.4-7.5V37.4
			c0-2.8-1.8-6.1-4.1-7.4s-6-1.2-8.4,0.2l-236,136.3c-2.4,1.4-4.3,4.8-4.3,7.5v190.9C58,367.7,59.8,371,62,372.3z"/>
		<path id="XMLID_1339_" class="st0" d="M70.5,372.1l236-136.3c2.4-1.4,4.4-4.8,4.4-7.5V37.4c0-2.8-2-3.9-4.4-2.5l-236,136.3
			c-2.4,1.4-4.3,4.8-4.3,7.5v190.9C66.1,372.4,68.1,373.5,70.5,372.1z"/>
		<path id="XMLID_1338_" class="st3" d="M70.5,372.1l236-136.3c2.4-1.4,4.4-4.8,4.4-7.5V37.4c0-2.8-2-3.9-4.4-2.5l-236,136.3
			c-2.4,1.4-4.3,4.8-4.3,7.5v190.9C66.1,372.4,68.1,373.5,70.5,372.1z"/>
		<path id="XMLID_1337_" class="st0" d="M69.8,377.1c-2.4,1.1-5.7,1-7.8-0.2c-2.3-1.3-4.1-4.6-4.1-7.4v-17.4l8.2,4.7v17.4
			C66.1,376.8,67.7,377.9,69.8,377.1z"/>
		<path id="XMLID_1606_" class="st3" d="M69.8,377.1c-2.4,1.1-5.7,1-7.8-0.2c-2.3-1.3-4.1-4.6-4.1-7.4v-17.4l8.2,4.7v17.4
			C66.1,376.8,67.7,377.9,69.8,377.1z"/>
		<path id="XMLID_1336_" class="st0" d="M66.1,356.9l0,17.4c0,2.8,1.9,3.9,4.3,2.5l236-136.3c2.4-1.4,4.4-4.8,4.4-7.5v-17.4
			L66.1,356.9z"/>
		<path id="XMLID_1335_" class="st2" d="M66.1,356.8v17.4c0,2.8,1.9,3.9,4.3,2.5l236-136.3c2.4-1.4,4.4-4.8,4.4-7.5v-17.4
			L66.1,356.8z"/>
		<path id="XMLID_1334_" class="st0" d="M74.3,335V181.4c0-1.7,1.2-3.7,2.6-4.5L300,48c1.4-0.8,2.6-0.2,2.6,1.5l0,153.7
			c0,1.7-1.2,3.7-2.6,4.5L76.9,336.5C75.4,337.4,74.3,336.7,74.3,335z"/>
		<path id="XMLID_1333_" class="st4" d="M74.3,335V181.4c0-1.7,1.2-3.7,2.6-4.5L300,48c1.4-0.8,2.6-0.2,2.6,1.5l0,153.7
			c0,1.7-1.2,3.7-2.6,4.5L76.9,336.5C75.4,337.4,74.3,336.7,74.3,335z"/>
		<path id="XMLID_1332_" class="st0" d="M188.4,291.7c-2.3,1.3-4.1,4.5-4.1,7.1c0,2.6,1.8,3.7,4.1,2.4c2.3-1.3,4.1-4.5,4.1-7.1
			C192.5,291.5,190.7,290.4,188.4,291.7z"/>
		<path id="XMLID_1331_" class="st5" d="M67.4,174.4c-0.8,1.4-1.3,2.9-1.3,4.3v178.2l-8.2-4.7V174c0-1.4,0.5-2.9,1.3-4.3L67.4,174.4
			z"/>
		<path id="XMLID_1544_" class="st2" d="M310.8,36.7c-0.3-2.2-2.1-3-4.3-1.8l-236,136.3c-1.2,0.7-2.3,1.9-3.1,3.2l-8.2-4.7
			c0.8-1.4,1.9-2.5,3.1-3.2l236-136.2c2.4-1.4,6.2-1.5,8.4-0.1C308.8,31.2,310.5,34.1,310.8,36.7z"/>
	</g>
</g>
<g id="Window_1_">
	<g id="Window">
		<g id="Window_2_">
			<g id="Window_3_">
				<g id="XMLID_1920_">
					<path class="st0" d="M323.5,60.2c-0.6-0.3-1.3-0.3-2.2,0.2L98.6,188.9c-1.7,1-3.1,3.3-3.1,5.3v152.7c0,1.2,0.5,2.2,1.3,2.6
						c0.5,0.3,3.1,1.8,3.9,2.2c0.5,0.3,1.1,0.3,1.8-0.1l222.7-128.6c1.7-1,3-3.3,3-5.3V64.3c0-1-0.4-1.7-0.9-2
						C326.7,62,324,60.5,323.5,60.2z"/>
				</g>
				<g id="XMLID_1917_">
					<g id="XMLID_1919_">
						<path class="st6" d="M101.5,351.5c-0.8,0-1.5-1-1.5-2.3V196.4c0-1.8,1.3-4,2.8-4.8L325.4,63c0.4-0.2,0.8-0.3,1.1-0.3
							c0.7,0,1.2,0.6,1.2,1.7v153.5c0,1.8-1.3,4-2.8,4.8L102.2,351.3C102,351.4,101.7,351.5,101.5,351.5z"/>
						<path class="st7" d="M326.5,63.2L326.5,63.2c0.6,0,0.7,0.7,0.7,1.2v153.5c0,1.6-1.2,3.6-2.5,4.4L102,350.8
							c-0.2,0.1-0.4,0.2-0.5,0.2c-0.6,0-1-0.9-1-1.8V196.4c0-1.6,1.2-3.6,2.6-4.4L325.7,63.4C326.1,63.2,326.4,63.2,326.5,63.2
							 M326.5,62.2c-0.4,0-0.9,0.1-1.4,0.4L102.5,191.2c-1.7,1-3.1,3.3-3.1,5.3v152.7c0,1.5,0.8,2.8,2,2.8c0.3,0,0.7-0.1,1-0.3
							l222.7-128.6c1.7-1,3-3.3,3-5.3V64.3C328.2,63,327.5,62.2,326.5,62.2L326.5,62.2z"/>
					</g>
					<path id="XMLID_1918_" class="st8" d="M96.8,349.6c0.3,0.2,2.7,1.5,3.7,2.1c-0.7-0.5-1.1-1.4-1.1-2.6V206.4l-3.9-2.3V347
						C95.5,348.1,96.1,349.2,96.8,349.6z"/>
				</g>
				<g id="XMLID_1913_">
					<path id="XMLID_1916_" class="st0" d="M328.2,64.3c0-1.9-1.4-2.7-3-1.7L102.5,191.2c-1.7,1-3.1,3.3-3.1,5.3v10L328.2,74.3V64.3
						z"/>
					<g id="XMLID_1915_" class="st9">
						<path class="st10" d="M325.2,62.6L102.5,191.1c-0.8,0.5-1.6,1.3-2.2,2.3l-3.9-2.2c0.6-0.9,1.3-1.8,2.1-2.2L321.3,60.4
							c0.9-0.5,1.6-0.5,2.2-0.2c0.5,0.3,3.1,1.8,3.7,2.1C326.7,62,326,62.1,325.2,62.6z"/>
					</g>
					<path id="XMLID_1914_" class="st11" d="M95.5,204.1v-9.9c0-1,0.4-2.1,0.9-3.1l3.9,2.2c-0.6,1-0.9,2-0.9,3v10L95.5,204.1z"/>
				</g>
			</g>
		</g>
		<g id="XMLID_985_">
			<g id="XMLID_639_">
				<path id="XMLID_645_" class="st0" d="M281.3,179.4l-133.4,77c-1.2,0.7-2.2,2.4-2.2,3.9v38.2c0,1.4,1,3.1,2.2,3.9l3.9,2.2
					c1.2,0.7,3.2,0.7,4.4,0l133.4-77c1.2-0.7,2.2-2.4,2.2-3.9l0-38.3c0-1.4-1-3.1-2.2-3.9l-3.9-2.2
					C284.5,178.7,282.5,178.7,281.3,179.4z"/>
				<path id="XMLID_717_" class="st12" d="M291.8,185.1c-0.1-1.1-1.1-1.6-2.2-0.9l-133.4,77c-0.6,0.4-1.2,1-1.6,1.7l-8.4-4.8
					c0.4-0.7,1-1.3,1.6-1.6l133.4-77c1.2-0.7,3.2-0.7,4.5,0l3.9,2.2C290.7,182.3,291.7,183.8,291.8,185.1z"/>
				<path id="XMLID_730_" class="st4" d="M155.9,304.8c-1.2,0.5-3,0.5-4.1-0.2l-3.9-2.2c-1.2-0.7-2.2-2.4-2.2-3.9v-38.2
					c0-0.7,0.3-1.5,0.7-2.2l8.4,4.8c-0.4,0.7-0.7,1.5-0.7,2.2v38.2C154,304.6,154.8,305.2,155.9,304.8z"/>
				<path id="XMLID_644_" class="st0" d="M156.2,261.2l133.4-77c1.2-0.7,2.2-0.1,2.2,1.3l0,38.3c0,1.4-1,3.1-2.2,3.9l-133.4,77
					c-1.2,0.7-2.2,0.1-2.2-1.3v-38.2C154,263.7,155,261.9,156.2,261.2z"/>
				<path id="XMLID_647_" class="st13" d="M245.9,199.8l-98,56.6c-0.6,0.4-1.2,1-1.6,1.6l8.4,4.8c0.4-0.7,1-1.3,1.6-1.7l98-56.6
					L245.9,199.8z"/>
				<path id="XMLID_652_" class="st14" d="M254.2,204.6l-98,56.6c-1.2,0.7-2.2,2.4-2.2,3.9v38.2c0,1.4,1,2,2.2,1.3l98-56.6V204.6z"
					/>
			</g>
			<g id="XMLID_640_">
				<path id="XMLID_1663_" class="st0" d="M178.8,256.6l50.6-29.2c2.1-1.2,3.8-0.4,3.8,1.9s-1.7,5.1-3.8,6.3l-50.6,29.2
					c-2.1,1.2-3.8,0.4-3.8-1.9C175,260.6,176.7,257.8,178.8,256.6z"/>
			</g>
			<g id="XMLID_646_">
				<path id="XMLID_986_" class="st6" d="M189.2,266.2c0.1,0,0.1,0,0.1,0s0.1,0.1,0.1,0.2v5.7c0,0.6-0.1,1.1-0.1,1.6
					c-0.1,0.5-0.2,1-0.4,1.4s-0.4,0.8-0.7,1.2c-0.3,0.3-0.6,0.6-1,0.8c-0.4,0.2-0.7,0.3-1,0.3c-0.3,0-0.5-0.1-0.7-0.4
					c-0.2-0.2-0.3-0.5-0.4-1s-0.1-0.9-0.1-1.5v-5.7c0-0.1,0-0.2,0.1-0.3c0-0.1,0.1-0.2,0.1-0.2l0.6-0.4c0.1,0,0.1,0,0.1,0
					c0,0,0.1,0.1,0.1,0.2v5.6c0,0.4,0,0.7,0.1,0.9c0.1,0.2,0.1,0.4,0.2,0.5s0.2,0.2,0.4,0.2c0.1,0,0.3-0.1,0.5-0.2s0.3-0.2,0.5-0.4
					c0.1-0.2,0.3-0.4,0.4-0.6s0.2-0.5,0.3-0.8s0.1-0.6,0.1-1v-5.6c0-0.1,0-0.2,0.1-0.3c0-0.1,0.1-0.2,0.1-0.2L189.2,266.2z"/>
				<path id="XMLID_988_" class="st6" d="M193.1,271.6c0-0.1,0-0.2-0.1-0.2c0,0-0.1-0.1-0.2-0.1s-0.2,0-0.4,0s-0.3,0.1-0.6,0.1
					c-0.2,0-0.4,0-0.6,0c-0.1,0-0.3-0.1-0.4-0.3c-0.1-0.1-0.1-0.3-0.2-0.5c0-0.2-0.1-0.5-0.1-0.7s0-0.6,0.1-0.9s0.2-0.6,0.3-0.9
					c0.1-0.3,0.3-0.5,0.5-0.8c0.2-0.2,0.4-0.4,0.7-0.6c0.3-0.1,0.5-0.2,0.7-0.2c0.2,0,0.4,0,0.5,0.1s0.3,0.2,0.3,0.4
					c0.1,0.2,0.1,0.4,0.1,0.6c0,0.1,0,0.2-0.1,0.3s-0.1,0.2-0.1,0.2l-0.6,0.4c-0.1,0-0.1,0-0.2,0c0,0-0.1-0.1-0.1-0.1
					s-0.1-0.1-0.2-0.1c-0.1,0-0.2,0-0.4,0.1s-0.3,0.2-0.4,0.4c-0.1,0.1-0.2,0.3-0.2,0.5c0,0.1,0,0.2,0,0.2c0,0,0.1,0.1,0.2,0.1
					s0.2,0,0.3,0c0.1,0,0.3-0.1,0.6-0.1c0.5-0.1,0.8,0,1,0.3c0.2,0.3,0.3,0.7,0.3,1.2c0,0.3,0,0.6-0.1,0.9s-0.2,0.6-0.3,0.9
					s-0.3,0.6-0.6,0.8s-0.5,0.5-0.7,0.6c-0.3,0.2-0.5,0.2-0.7,0.3c-0.2,0-0.4,0-0.5-0.1c-0.1-0.1-0.3-0.2-0.3-0.4s-0.1-0.4-0.1-0.6
					c0-0.1,0-0.2,0.1-0.3c0-0.1,0.1-0.2,0.1-0.2l0.6-0.4c0.1,0,0.1,0,0.2,0c0,0,0.1,0.1,0.1,0.1s0.1,0.1,0.2,0.1
					c0.1,0,0.2,0,0.4-0.1c0.1,0,0.2-0.1,0.2-0.2s0.2-0.1,0.2-0.2c0.1-0.1,0.1-0.2,0.2-0.3C193.1,271.8,193.1,271.7,193.1,271.6z"/>
				<path id="XMLID_990_" class="st6" d="M195.1,268.9c0-0.5,0-1,0.1-1.5c0.1-0.5,0.2-1,0.4-1.4c0.2-0.4,0.4-0.8,0.6-1.1
					s0.5-0.6,0.8-0.8s0.6-0.2,0.8-0.2c0.2,0,0.4,0.2,0.6,0.4c0.2,0.2,0.3,0.5,0.4,0.9s0.1,0.8,0.1,1.3v0.6c0,0.1,0,0.2-0.1,0.3
					c0,0.1-0.1,0.2-0.1,0.2l-2.6,1.5c0,0.2,0,0.4,0.1,0.5c0.1,0.1,0.1,0.2,0.2,0.3c0.1,0.1,0.2,0.1,0.3,0.1s0.2,0,0.3-0.1
					c0.2-0.1,0.3-0.2,0.4-0.3c0.1-0.1,0.2-0.2,0.3-0.4c0.1-0.1,0.1-0.2,0.1-0.2c0,0,0.1-0.1,0.1-0.1l0.6-0.4c0.1,0,0.1,0,0.1,0
					s0.1,0.1,0.1,0.2c0,0.1-0.1,0.3-0.1,0.6c-0.1,0.3-0.2,0.5-0.3,0.8s-0.3,0.6-0.6,0.8c-0.2,0.3-0.5,0.5-0.8,0.6
					c-0.3,0.2-0.6,0.2-0.8,0.2c-0.2,0-0.4-0.2-0.6-0.4c-0.2-0.2-0.3-0.6-0.4-1C195.2,269.9,195.1,269.5,195.1,268.9z M197.1,265.7
					c-0.1,0.1-0.3,0.2-0.4,0.3c-0.1,0.1-0.2,0.3-0.3,0.5c-0.1,0.2-0.1,0.3-0.2,0.5c0,0.2-0.1,0.3-0.1,0.5l1.8-1c0-0.1,0-0.3-0.1-0.4
					c0-0.1-0.1-0.3-0.1-0.3c-0.1-0.1-0.1-0.1-0.3-0.2C197.4,265.6,197.2,265.6,197.1,265.7z"/>
				<path id="XMLID_1008_" class="st6" d="M202.1,262.9c-0.3,0.2-0.5,0.4-0.7,0.8c-0.1,0.3-0.2,0.8-0.2,1.3v3.6c0,0.1,0,0.2-0.1,0.3
					c0,0.1-0.1,0.2-0.1,0.2l-0.6,0.3c-0.1,0-0.1,0-0.1,0s-0.1-0.1-0.1-0.2v-6.5c0-0.1,0-0.2,0.1-0.3c0-0.1,0.1-0.2,0.1-0.2l0.6-0.3
					c0.1,0,0.1,0,0.1,0c0,0,0.1,0.1,0.1,0.2v0.3c0.1-0.3,0.3-0.6,0.4-0.8c0.1-0.2,0.4-0.4,0.6-0.5l0.4-0.2c0.1,0,0.1,0,0.1,0
					s0.1,0.1,0.1,0.2v0.9c0,0.1,0,0.2-0.1,0.3c0,0.1-0.1,0.2-0.1,0.2L202.1,262.9z"/>
				<path id="XMLID_1013_" class="st6" d="M209.6,262.5c0.1,0,0.1,0,0.1,0s0.1,0.1,0.1,0.2v1c0,0.1,0,0.2-0.1,0.3
					c0,0.1-0.1,0.2-0.1,0.2l-3.4,2c-0.1,0-0.1,0-0.1,0s-0.1-0.1-0.1-0.2v-9c0-0.1,0-0.2,0.1-0.3c0-0.1,0.1-0.2,0.1-0.2l0.6-0.4
					c0.1,0,0.1,0,0.1,0s0.1,0.1,0.1,0.2v7.6L209.6,262.5z"/>
				<path id="XMLID_1017_" class="st6" d="M212.7,255.1c0.3-0.2,0.6-0.2,0.8-0.2c0.2,0,0.4,0.1,0.6,0.3c0.2,0.2,0.3,0.4,0.4,0.7
					c0.1,0.3,0.2,0.7,0.2,1.1c0,0.1,0,0.2,0,0.3c0,0.1,0,0.3,0,0.4s0,0.3,0,0.4s0,0.2,0,0.3c0,0.4-0.1,0.9-0.2,1.3
					c-0.1,0.4-0.2,0.8-0.4,1.2c-0.2,0.4-0.4,0.7-0.6,1c-0.2,0.3-0.5,0.5-0.8,0.7s-0.6,0.2-0.8,0.2c-0.2,0-0.4-0.1-0.6-0.3
					c-0.2-0.2-0.3-0.4-0.4-0.7c-0.1-0.3-0.2-0.7-0.2-1.1c0-0.1,0-0.2,0-0.3c0-0.1,0-0.3,0-0.4s0-0.3,0-0.4s0-0.2,0-0.3
					c0-0.4,0.1-0.9,0.2-1.3c0.1-0.4,0.2-0.8,0.4-1.2s0.4-0.7,0.6-1C212.1,255.4,212.4,255.2,212.7,255.1z M213.6,257.6
					c0-0.3-0.1-0.5-0.1-0.6c-0.1-0.1-0.1-0.3-0.2-0.3s-0.2-0.1-0.3-0.1c-0.1,0-0.2,0.1-0.3,0.1s-0.2,0.1-0.3,0.3
					c-0.1,0.1-0.2,0.2-0.3,0.4c-0.1,0.2-0.2,0.4-0.2,0.6s-0.1,0.5-0.1,0.8c0,0.1,0,0.2,0,0.3c0,0.1,0,0.2,0,0.4s0,0.2,0,0.4
					c0,0.1,0,0.2,0,0.3c0,0.3,0.1,0.5,0.1,0.6s0.1,0.3,0.2,0.3s0.2,0.1,0.3,0.1c0.1,0,0.2-0.1,0.3-0.1s0.2-0.1,0.3-0.3
					c0.1-0.1,0.2-0.2,0.3-0.4c0.1-0.2,0.2-0.4,0.2-0.6s0.1-0.5,0.1-0.8c0-0.1,0-0.2,0-0.3s0-0.2,0-0.4c0-0.1,0-0.2,0-0.4
					C213.6,257.8,213.6,257.7,213.6,257.6z"/>
				<path id="XMLID_1020_" class="st6" d="M217.7,260.9c0.1-0.1,0.2-0.2,0.3-0.3c0.1-0.1,0.2-0.3,0.3-0.5s0.2-0.4,0.2-0.6
					c0.1-0.2,0.1-0.5,0.1-0.8v-0.5c0,0.1-0.1,0.2-0.2,0.4c-0.1,0.1-0.1,0.3-0.3,0.4c-0.1,0.1-0.2,0.3-0.3,0.4
					c-0.1,0.1-0.3,0.2-0.4,0.3c-0.3,0.1-0.5,0.2-0.7,0.1s-0.4-0.2-0.5-0.4s-0.3-0.5-0.4-0.8c-0.1-0.3-0.1-0.7-0.1-1.1
					c0-0.1,0-0.3,0-0.5c0-0.2,0-0.4,0-0.5c0-0.4,0.1-0.9,0.1-1.3s0.2-0.9,0.4-1.2c0.1-0.4,0.3-0.7,0.5-1c0.2-0.3,0.4-0.5,0.7-0.7
					c0.2-0.1,0.3-0.1,0.4-0.2c0.1,0,0.2,0,0.3,0c0.1,0,0.2,0.1,0.3,0.1s0.1,0.1,0.2,0.2v-0.3c0-0.1,0-0.2,0.1-0.3s0.1-0.2,0.1-0.2
					l0.6-0.3c0.1,0,0.1,0,0.1,0s0.1,0.1,0.1,0.2v6.5c0,1.1-0.2,2.1-0.5,2.8s-0.8,1.3-1.5,1.7c-0.3,0.1-0.5,0.2-0.7,0.2
					c-0.2,0-0.4,0-0.6-0.2c-0.2-0.1-0.3-0.3-0.4-0.5c-0.1-0.2-0.1-0.5-0.2-0.7c0-0.1,0-0.2,0.1-0.3c0-0.1,0.1-0.2,0.1-0.2l0.5-0.3
					c0.1,0,0.1,0,0.2,0c0.1,0.1,0.1,0.1,0.1,0.2c0.1,0.1,0.2,0.2,0.3,0.2C217.3,261.1,217.4,261,217.7,260.9z M216.7,256
					c0,0.3,0,0.5,0,0.8c0,0.6,0.1,1,0.3,1.1c0.2,0.2,0.4,0.2,0.6,0c0.3-0.1,0.5-0.4,0.6-0.8s0.3-0.8,0.3-1.3c0-0.1,0-0.3,0-0.5
					c0-0.2,0-0.4,0-0.5c0-0.5-0.1-0.8-0.3-1c-0.2-0.2-0.4-0.2-0.6,0c-0.3,0.1-0.5,0.4-0.6,0.8C216.9,254.9,216.8,255.4,216.7,256z"
					/>
				<path id="XMLID_1023_" class="st6" d="M222,247.2c0.1,0,0.1,0,0.1,0s0.1,0.1,0.1,0.2v1.1c0,0.1,0,0.2-0.1,0.3S222,249,222,249
					l-0.7,0.4c-0.1,0-0.1,0-0.1,0s-0.1-0.1-0.1-0.2v-1.1c0-0.1,0-0.2,0.1-0.3s0.1-0.2,0.1-0.2L222,247.2z M222.1,256.6
					c0,0.1,0,0.2-0.1,0.3c0,0.1-0.1,0.2-0.1,0.2l-0.6,0.3c-0.1,0-0.1,0-0.1,0s-0.1-0.1-0.1-0.2v-6.5c0-0.1,0-0.2,0.1-0.3
					s0.1-0.2,0.1-0.2l0.6-0.3c0.1,0,0.1,0,0.1,0s0.1,0.1,0.1,0.2V256.6z"/>
				<path id="XMLID_1026_" class="st6" d="M227.4,253.5c0,0.1,0,0.2-0.1,0.3s-0.1,0.2-0.1,0.2l-0.6,0.3c-0.1,0-0.1,0-0.1,0
					s-0.1-0.1-0.1-0.2v-3.5c0-0.6-0.1-1-0.2-1.2s-0.4-0.3-0.7-0.1c-0.3,0.2-0.5,0.4-0.6,0.9c-0.2,0.4-0.2,0.9-0.2,1.5v3.5
					c0,0.1,0,0.2-0.1,0.3s-0.1,0.2-0.1,0.2l-0.6,0.3c-0.1,0-0.1,0-0.1,0s-0.1-0.1-0.1-0.2v-6.5c0-0.1,0-0.2,0.1-0.3s0.1-0.2,0.1-0.2
					l0.6-0.3c0.1,0,0.1,0,0.1,0c0,0.1,0.1,0.1,0.1,0.2v0.3c0.1-0.3,0.3-0.6,0.5-0.9c0.2-0.3,0.4-0.5,0.6-0.6
					c0.3-0.2,0.6-0.3,0.8-0.2c0.2,0.1,0.4,0.2,0.5,0.4c0.1,0.2,0.2,0.5,0.3,0.9c0.1,0.4,0.1,0.8,0.1,1.2L227.4,253.5L227.4,253.5z"
					/>
			</g>
			<g id="XMLID_641_">
				<path id="XMLID_716_" class="st13" d="M277.9,224.4l-9.7,5.6l1.5-13.6c-1.2-0.6-1.9-2.1-1.9-4.3c0-3.9,2.4-8.4,5.3-10
					c2.9-1.7,5.3,0.1,5.3,4c0,2.2-0.7,4.5-1.9,6.5L277.9,224.4z"/>
				<polygon id="XMLID_715_" class="st14" points="277.9,224.4 269.3,219.5 268.2,230 				"/>
				<path id="XMLID_643_" class="st14" d="M273,202.1c-1.9,1.1-3.6,3.4-4.5,5.9l7.8,4.5l0,0c1.2-2,1.9-4.3,1.9-6.5
					C278.3,202.1,275.9,200.4,273,202.1z"/>
			</g>
		</g>
		<g id="XMLID_979_">
			<g id="XMLID_1560_">
				<g id="XMLID_1570_">
					<path id="XMLID_2351_" class="st0" d="M225.8,156.7c-3.3-1.9-7.9-1.6-13,1.3c-10.1,5.9-18.4,20.1-18.4,31.8
						c0,5.9,2.1,10,5.4,11.9c0.9,0.5,5.6,3.2,6.5,3.8c3.3,1.9,7.9,1.6,13-1.3c10.1-5.9,18.4-20.1,18.4-31.8c0-5.9-2.1-10-5.4-11.9"
						/>
					<path id="XMLID_2399_" class="st0" d="M219.3,161.8c-10.1,5.9-18.4,20.1-18.4,31.8s8.2,16.4,18.4,10.6
						c10.1-5.9,18.4-20.1,18.4-31.8C237.7,160.6,229.4,155.9,219.3,161.8z"/>
					<path id="XMLID_999_" class="st0" d="M229.4,187.7v1.3c-2.6,4.5-6.2,8.4-10.1,10.6c-3.9,2.3-7.5,2.5-10.1,1.1V198
						c0-5.4,3.6-11.6,8.3-14.3l2.7-1.5c2.4-1.4,4.7-1.5,6.5-0.5C228.4,182.7,229.4,184.9,229.4,187.7z"/>
					<path id="XMLID_1014_" class="st15" d="M225.8,156.7l6.5,3.8c-3.3-1.9-7.9-1.6-13,1.3c-6.6,3.8-12.4,11.3-15.7,19.2l-6.5-3.8
						c3.2-8,9-15.4,15.7-19.2C217.9,155.1,222.5,154.8,225.8,156.7z"/>
					<path id="XMLID_1016_" class="st16" d="M206.1,205.3c-1.1-0.7-5.4-3.1-6.2-3.6c-3.3-1.9-5.4-6-5.4-11.9l6.5,3.8
						C201,199.3,202.9,203.3,206.1,205.3z"/>
					<path id="XMLID_995_" class="st17" d="M197.1,177.2l6.5,3.8c-1.7,4.2-2.7,8.5-2.7,12.6l0,0l-6.5-3.8
						C194.4,185.7,195.4,181.4,197.1,177.2z"/>
				</g>
			</g>
			<g id="XMLID_738_">
				<g id="XMLID_980_">
					<path id="XMLID_983_" class="st10" d="M217,181.5c-0.6,0-1.2-0.1-1.8-0.5c-1.2-0.7-1.9-2.1-1.9-4c0-3.4,2.3-7.4,5.2-9.1l0,0
						c1.6-0.9,3.2-1,4.4-0.3c1.2,0.7,1.9,2.1,1.9,4c0,3.4-2.3,7.4-5.2,9.1C218.7,181.3,217.8,181.5,217,181.5z"/>
				</g>
				<g id="XMLID_764_">
					<path id="XMLID_765_" class="st10" d="M226.6,181.6c-1.8-1-4.1-0.9-6.5,0.5l-2.7,1.5c-4.6,2.7-8.3,9-8.3,14.3v2.8
						c2.6,1.4,6.2,1.2,10.1-1.1c3.9-2.3,7.5-6.2,10.1-10.6v-1.3C229.4,184.9,228.4,182.7,226.6,181.6z"/>
				</g>
			</g>
		</g>
	</g>
</g>
<g id="Character">
	<g id="Character_3_">
		<g id="XMLID_729_">
			<g id="XMLID_1087_">
				<path id="XMLID_1144_" class="st18" d="M397.4,226.2c-4.2,7.1-8.2,13.3-11.1,16.2c-5.4,2.5-18,6.4-23,7
					c-0.9,0.1-1.8-0.1-2.5-0.6c-2-1.3-3.5-1.5-5.5-2.2c-1.6-0.6-2.3-1.3-2.6-1c-0.4,0.4-0.8,1.4,0.2,2.6c0.5,0.6,1.4,1.2,2.5,1.9
					c0,0-3.5,0.9-6.7,0.1c-4.3-1.1-6.3,0.9-3.4,5.6c1,1.7,5.1,4.3,13.4,3.6c2.4-0.2,5.8-0.4,8.8-1c8-1.7,16.8-3.3,22.2-5
					c1.4-0.4,3.8-2,5.3-3.7c9.1-10.4,12.2-17.8,16.2-24.6l-0.4-11C404.3,214,400.9,220.3,397.4,226.2z"/>
				<path id="XMLID_1143_" class="st13" d="M411.9,214c0,0-5.6-1.2-9.9,4.2c-4.5,5.7-12.3,19.4-12.3,19.4s2.6,6.9,9.5,8l11.1-15.1
					C410.4,230.5,415.7,220.1,411.9,214z"/>
				<g id="XMLID_1136_">
					<rect id="XMLID_1142_" x="428.8" y="367.5" class="st18" width="7.3" height="13"/>
					<polygon id="XMLID_1141_" class="st18" points="410.8,366.8 403.6,367.1 403.2,353.4 410.8,353.1 					"/>
					<path id="XMLID_1140_" class="st14" d="M437.1,255.4c0,7.2-1.1,65.4-1.1,65.4c0.2,2.1,2,5.9,1.6,13.9
						c-0.5,10.9-1.3,39.4-1.3,39.4s-3.5,2.1-8.1,0.2c0,0-5.9-40-7.2-50.7c-1.1-9.4-4-40.5-4-40.5l-3.9,36.7c0,0,1.3,5.6,0.9,12
						c-0.3,5-2.7,30.9-2.7,30.9s-3.4,2.4-8.4,0.7c0,0-4.1-39-4.2-43.6c-0.1-5.2,2.4-64.4,2.4-64.4L437.1,255.4z"/>
					<path id="XMLID_1139_" class="st4" d="M428.8,376.8v-1.1c-0.7,0.3-2.3,6.7-5.2,9.5c-2.3,2.2-5.4,4.7-6.2,7.1
						c-0.8,2.5,4.4,3.9,6.5,3.5c2.5-0.5,6.8-2.3,7.9-4c1.1-1.7,1.6-4.2,2.5-5.4s2.9-2.6,3.4-4.1c0.3-0.8,0-2.5-0.4-4
						c-0.3-1.3-0.7-2.8-1.1-2.7c0,0.2,0,0.8,0,0.8c-0.5,0.6-2,1.2-3.6,1.3C431.3,377.8,428.8,377.6,428.8,376.8z"/>
					<path id="XMLID_1138_" class="st4" d="M403.5,364.8c-0.4,0-0.7,0.6-1.5,1.5c-1,1.1-2.6,2.4-4.3,3.2c-2.7,1.4-8,3.6-10.4,4.7
						c-1.5,0.7-1.4,2.6,0.1,3.6s5.3,1.8,9.8,0.8c2.4-0.6,5.6-2.9,7.6-2.8s5.8,0.1,7.3-1c1.5-1.1,0.9-3.3,0.5-5.3
						c-0.5-2.1-1-5.5-1.7-5.3v0.7c-0.9,1.4-5.4,1.9-7.3,0.9L403.5,364.8z"/>
					<path id="XMLID_1137_" class="st4" d="M417,283c0,0-5.8-1.7-10.1-6c0,0,2,3.8,7.8,7.4l-1.2,32.8L417,283z"/>
				</g>
				<g id="XMLID_1122_">
					<path id="XMLID_1124_" class="st0" d="M433,215.1c0,0,6,1.4,5.6,12.2l-1.3,17.3l0,25.9c-5.3,6.1-29,5.6-37.1-0.5
						c0,0,0.9-30.6,1.5-42.4c0.4-8.4,2.3-12.6,10.6-13.5l10.1,0.4L433,215.1z"/>
				</g>
				<g id="XMLID_1094_">
					<path id="XMLID_1116_" class="st4" d="M425.4,192.5c0,6.2-4.8,11.3-10.8,11.3s-9.5-5.2-10.8-11.3c-2.4-11.1,4.8-11.3,10.8-11.3
						C420.5,181.3,425.4,186.3,425.4,192.5z"/>
					<g id="XMLID_1102_">
						<path id="XMLID_1115_" class="st4" d="M430.9,197.1c0,0-1.7,8.1-2.3,9.4c-0.7,1.3-2,1.7-2,1.7l0.1-5.7L430.9,197.1z"/>
						<path id="XMLID_1108_" class="st4" d="M428.8,185.5c0,0,1.2-0.3,2.5,1.7c1.1,1.7,1.3,5.5-0.4,10l-3.1,0.4L428.8,185.5z"/>
						<path id="XMLID_1330_" class="st4" d="M429.9,187.1l3.8,0.1c0.1-1.1-0.7-2-1.8-2C431,185.1,430,186,429.9,187.1z"/>
						<path id="XMLID_1286_" class="st4" d="M430.4,186.2l2.8-2.7c-0.7-0.8-1.9-0.9-2.7-0.1C429.8,184.1,429.7,185.4,430.4,186.2z"
							/>
						<path id="XMLID_1107_" class="st18" d="M426.8,197.5c0.6,0.4,1.5-0.9,2.3-1.7c0.8-0.8,3.2-1.6,4.5,1.1
							c1.3,2.8-0.9,5.5-2.7,6.4c-3.2,1.6-4.3-0.7-4.3-0.7l-0.3,12.9c-4.5,7-14.8,6.8-11.1-0.3l0-3.9c0,0-3.1,0.5-4.6,0.3
							c-2.5-0.4-4.1-2.5-4.9-5.3c-1.2-4.6-1.7-8.2-0.6-17.2c1.1-9.8,12.1-9.9,18-6C429.1,186.7,426.8,197.5,426.8,197.5z"/>
						<path id="XMLID_1106_" class="st4" d="M413.1,187.4c2.6-0.3,5.2-0.8,7.8-1c0.6,0,1.1-0.1,1.7,0.1c2,0.5,1.8,2.9,2.1,4.5
							c0.5,2.8,1,7.6,2.1,7.6c0.3,0,1.5-2.1,2.3-2.8c0.5-0.5,0.6-1.5,0.7-2.1c0.2-1.2,0.3-2.4,0.4-3.5c0.1-1,0.2-2,0.2-3
							c0-1.1,0-2.3-0.3-3.4c-0.3-1-0.7-1.7-1.4-2.5c-0.1-0.1-0.1-0.1-0.2-0.2c-1.3-1.4-2.9-2.4-4.7-3.2c-2.5-1-5.2-1.4-7.9-1.7
							s-5.4-0.4-8.1-1c-0.2,0-0.3-0.1-0.5,0c-0.2,0.1-0.3,0.4-0.4,0.6c-0.2,1.2,0.3,2.6,1.4,3.3c-1.8,0.1-3.9-0.8-5.6-1.3
							c-0.3-0.1-0.6-0.1-0.9,0c-0.2,0.1-0.3,0.3-0.4,0.5c-0.1,0.5-0.1,1,0,1.4c0.2,1.4,0.7,2.8,1.6,4c1.3,1.6,3.4,3.1,5.4,3.5
							C410,187.5,411.5,187.5,413.1,187.4z"/>
						<path id="XMLID_1103_" class="st19" d="M415.2,211.2c0,0,5.6-1.2,7.6-2.3c1.3-0.7,2.4-2,2.7-2.8c0,0-0.4,1.7-1.5,3.3
							c-1.4,1.9-8.8,3.3-8.8,3.3L415.2,211.2z"/>
					</g>
					<g id="XMLID_1095_">
						<path id="XMLID_1101_" class="st4" d="M416.6,196c0,0.7,0.5,1.2,1.1,1.2c0.6,0,1.1-0.6,1.1-1.2s-0.5-1.2-1.1-1.2
							S416.6,195.3,416.6,196z"/>
						<path id="XMLID_1100_" class="st4" d="M418.4,191.1l2.4,1.4c0.4-0.7,0.1-1.6-0.6-2C419.6,190.1,418.8,190.4,418.4,191.1z"/>
						<path id="XMLID_1099_" class="st19" d="M415.7,204.1l-2.6,1c0.3,0.8,1,1.2,1.8,0.9C415.6,205.7,416,204.9,415.7,204.1z"/>
						<path id="XMLID_1098_" class="st4" d="M406.3,192.2l2.2-1.8c-0.5-0.7-1.3-0.8-1.9-0.3C405.9,190.6,405.8,191.5,406.3,192.2z"
							/>
						<path id="XMLID_1097_" class="st4" d="M407.2,195.7c0,0.7,0.5,1.2,1.1,1.2c0.6,0,1.1-0.6,1.1-1.2s-0.5-1.2-1.1-1.2
							S407.2,195,407.2,195.7z"/>
						<polygon id="XMLID_1096_" class="st19" points="413.3,194.7 413.1,201.8 409.1,200.9 						"/>
					</g>
				</g>
			</g>
		</g>
		<g id="XMLID_931_">
			<g id="XMLID_975_">
				<polyline id="XMLID_861_" class="st0" points="317.3,254.3 323.6,250.7 326.1,247.6 319.8,251.3 317.3,254.3 				"/>
				<polyline id="XMLID_934_" class="st20" points="317.3,254.3 323.6,250.7 326.1,247.6 319.8,251.3 317.3,254.3 				"/>
			</g>
			<g id="XMLID_936_">
				<polyline id="XMLID_974_" class="st0" points="334.4,264.1 340.6,260.5 345.9,255.9 339.6,259.5 334.4,264.1 				"/>
				<polyline id="XMLID_935_" class="st20" points="334.4,264.1 340.6,260.5 345.9,255.9 339.6,259.5 334.4,264.1 				"/>
			</g>
			<path id="XMLID_971_" class="st0" d="M387.6,276.6c1.4,1.8,2.4,4.3,2.6,6.8C388.8,281.7,387.8,279.1,387.6,276.6z M402.2,276.8
				c-2.1-14.4-9.8-28.6-19-33.9c-4.4-2.6-8.5-2.6-11.8-0.7c-1,0.6-4.5,2.6-5.9,3.4c-0.1,0.1-0.2,0.1-0.3,0.2
				c-0.3,0.1-0.5,0.3-0.8,0.5c-0.5,0.3-0.9,0.7-1.4,1.1c-0.1,0.1-0.1,0.1-0.2,0.2c-0.2,0.2-0.4,0.4-0.5,0.6
				c-0.2,0.3-0.4,0.5-0.6,0.8c-0.4,0.5-0.8,1.1-1.1,1.8c-0.2,0.3-0.4,0.6-0.5,1L308.5,222l-6.3,3.6v4l0.5,0.3l0.5,0.3v0.8l-1,0.6
				v2.3l7.6,16l7.5,4.3l2.5-3l6.6,3.9l3.8,6.5l4.2,2.4l5.2-4.6l6.4,3.7l2.2,8.9l10.8,6.2c0.5,2.3,1.2,4.5,2,6.7
				c0.1,0.2,0.1,0.5,0.3,0.7c3.6,9.4,9.3,17.5,15.7,21.2c0.8,0.5,1.6,0.9,2.4,1.2c0.5,0.2,0.9,0.3,1.4,0.5c0.4,0.1,0.8,0.2,1.2,0.3
				c1.3,0.2,2.6,0.2,3.8,0c0.2,0,0.4-0.1,0.5-0.1c0.3,0,0.5-0.1,0.7-0.2c0.2-0.1,0.4-0.1,0.6-0.2c0.2-0.1,0.4-0.2,0.6-0.3
				c0.2-0.1,0.4-0.2,0.5-0.3c0.1,0,0.2-0.1,0.3-0.1c0,0,0.1,0,0.1-0.1c1.4-0.8,5-2.9,5.9-3.4c4.8-2.8,7.8-9.7,7.8-19.6
				C402.8,281.9,402.6,279.3,402.2,276.8z"/>
			<path id="XMLID_1041_" class="st0" d="M385.8,288.7c-2.5-1.4-4.5-5.7-4.5-9.5s2-5.7,4.5-4.3c2.5,1.4,4.5,5.7,4.5,9.5
				C390.3,288.2,388.3,290.1,385.8,288.7z M395.9,280.4c-2.1-14.3-9.8-28.5-19-33.8c-4.3-2.5-8.2-2.6-11.4-0.9
				c-0.1,0.1-0.2,0.1-0.3,0.2c-0.3,0.1-0.5,0.3-0.8,0.5c-0.5,0.3-0.9,0.7-1.4,1.1c-0.1,0.1-0.1,0.1-0.2,0.2
				c-0.2,0.2-0.4,0.4-0.5,0.6c-0.2,0.3-0.4,0.5-0.6,0.8c-0.4,0.5-0.8,1.1-1.1,1.8c-0.2,0.3-0.4,0.6-0.5,1c-0.9,1.8-1.5,3.8-2,6.1
				l-55.8-32.2v4l0.5,0.3l0.5,0.3v0.8l-1,0.6v2.3l7.6,16l7.5,4.3l2.5-3l6.6,3.9l3.8,6.5l4.2,2.4l5.2-4.6l6.4,3.7l2.2,8.9l10.8,6.2
				c0.5,2.3,1.2,4.5,2,6.7c0.1,0.2,0.1,0.5,0.3,0.7c3.6,9.4,9.3,17.5,15.7,21.2c0.8,0.5,1.6,0.9,2.4,1.2c0.5,0.2,0.9,0.3,1.4,0.5
				c0.4,0.1,0.8,0.2,1.2,0.3c1.3,0.2,2.6,0.2,3.8,0c0.2,0,0.4-0.1,0.5-0.1c0.3,0,0.5-0.1,0.7-0.2c0.2-0.1,0.4-0.1,0.6-0.2
				c0.2-0.1,0.4-0.2,0.6-0.3c0.2-0.1,0.4-0.2,0.5-0.3c0.1,0,0.2-0.1,0.3-0.1c0,0,0.1,0,0.1-0.1c4.6-2.9,7.5-9.8,7.5-19.4
				C396.5,285.5,396.3,283,395.9,280.4z"/>
			<path id="XMLID_1044_" class="st20" d="M390.3,284.4c0,3.8-2,5.7-4.5,4.3c-2.5-1.4-4.5-5.7-4.5-9.5s2-5.7,4.5-4.3
				c0.7,0.4,1.3,1,1.8,1.7c0.2,2.5,1.2,5.1,2.6,6.8C390.3,283.8,390.3,284.1,390.3,284.4z"/>
			<path id="XMLID_1047_" class="st15" d="M402.8,284.4c0,9.9-3.1,16.9-7.8,19.6c-1,0.5-4.5,2.6-5.9,3.4c4.6-2.9,7.5-9.8,7.5-19.4
				c0-2.5-0.2-5.1-0.6-7.6c-2.1-14.3-9.8-28.5-19-33.8c-4.3-2.5-8.2-2.6-11.4-0.9c1.4-0.8,4.9-2.9,5.9-3.4c3.3-1.9,7.4-1.8,11.8,0.7
				c9.2,5.3,16.9,19.5,19,33.9C402.6,279.3,402.8,281.9,402.8,284.4z"/>
			<g id="XMLID_722_">
				<path id="XMLID_727_" class="st0" d="M396.5,288c0,9.6-2.9,16.5-7.5,19.4c1.4-0.8,5-2.9,5.9-3.4c4.8-2.8,7.8-9.7,7.8-19.6
					c0-0.4,0-0.7,0-1.1c-2.1,1.2-4.3,2.5-6.3,3.6C396.5,287.3,396.5,287.6,396.5,288z"/>
				<path id="XMLID_653_" class="st17" d="M396.5,288c0,9.6-2.9,16.5-7.5,19.4c1.4-0.8,5-2.9,5.9-3.4c4.8-2.8,7.8-9.7,7.8-19.6
					c0-0.4,0-0.7,0-1.1c-2.1,1.2-4.3,2.5-6.3,3.6C396.5,287.3,396.5,287.6,396.5,288z"/>
			</g>
			<g id="XMLID_724_">
				<polygon id="XMLID_1050_" class="st11" points="358.3,261.9 358.3,264 302.3,231.6 303.3,231 303.3,230.2 				"/>
				<polygon id="XMLID_1046_" class="st11" points="358.3,262.8 358.3,264 302.3,231.6 303.3,231 303.3,231 				"/>
			</g>
			
				<ellipse id="XMLID_1030_" transform="matrix(0.956 -0.2934 0.2934 0.956 -64.603 122.7653)" class="st21" cx="376.9" cy="276.7" rx="14.8" ry="27.7"/>
			<path id="XMLID_1045_" class="st15" d="M360,251.7c-0.9,1.8-1.5,3.8-2,6.1l-55.8-32.2l6.3-3.6L360,251.7z"/>
		</g>
		<g id="XMLID_867_">
			<path id="XMLID_1093_" class="st18" d="M432.5,254.9c2.9-5.5,6.3-17.9,7.9-24.2c2.4-8.9-1.5-14.5-5.8-14.7
				c-2.7,0.4-11.6,32.9-11.6,32.9c-1,0.8-14.6,7.7-18.9,9.4c-0.8,0.3-1.6,0.3-2.4,0c-2.1-0.8-3.5-0.6-5.6-0.8
				c-1.6-0.2-2.4-0.7-2.6-0.4c-0.3,0.4-0.4,1.5,0.8,2.4c0.6,0.4,1.6,0.8,2.8,1.2c0,0-2.3,0.8-5.4,0.7c-4.2-0.1-5.7,1.7-2.5,6
				c2,2.7,5.3,3.5,12.7,1c2.1-0.7,5-2.2,7.7-3.1c5.5-2,7-2.2,11.2-3.7C426.9,259.4,431.2,257.3,432.5,254.9z"/>
			<path id="XMLID_335_" class="st13" d="M433,215.1c2.5,0.4,5,0.9,6.5,3c1.5,2.1,2.7,5,1.2,13s-4.5,16.5-4.5,16.5
				s-5.9,2.5-12.3-3.9l4.3-16.8C428.3,226.8,429,215.9,433,215.1z"/>
		</g>
	</g>
</g>
</svg>
