<?xml version="1.0" encoding="utf-8"?>
<!-- Generator: Adobe Illustrator 25.2.0, SVG Export Plug-In . SVG Version: 6.00 Build 0)  -->
<svg version="1.1" xmlns="http://www.w3.org/2000/svg" xmlns:xlink="http://www.w3.org/1999/xlink" x="0px" y="0px"
	 viewBox="0 0 500 500" style="enable-background:new 0 0 500 500;" xml:space="preserve">
<style type="text/css">
	.st0{opacity:0.5;fill:url(#SVGID_1_);}
	.st1{fill:url(#SVGID_2_);}
	.st2{fill:url(#SVGID_3_);}
	.st3{fill:url(#SVGID_4_);}
	.st4{fill:url(#SVGID_5_);}
	.st5{fill:url(#SVGID_6_);}
	.st6{fill:#163E6D;}
	.st7{fill:#235091;}
	.st8{fill:url(#SVGID_7_);}
	.st9{fill:url(#SVGID_8_);}
	.st10{fill:url(#SVGID_9_);}
	.st11{fill:url(#SVGID_10_);}
	.st12{fill:url(#SVGID_11_);}
	.st13{fill:#005448;}
	.st14{fill:url(#SVGID_12_);}
	.st15{fill:#E6E6E6;}
	.st16{fill:#BFBFBF;}
	.st17{fill:#FFFFFF;}
	.st18{fill:url(#SVGID_13_);}
	.st19{fill:#D9D9D9;}
	.st20{fill:url(#SVGID_14_);}
	.st21{fill:url(#SVGID_15_);}
	.st22{fill:url(#SVGID_16_);}
	.st23{fill:#CFCFCF;}
	.st24{fill:url(#SVGID_17_);}
	.st25{fill:url(#SVGID_18_);}
	.st26{fill:url(#SVGID_19_);}
	.st27{fill:url(#SVGID_20_);}
</style>
<g id="OBJECTS">
	<g>
		<g>
			<linearGradient id="SVGID_1_" gradientUnits="userSpaceOnUse" x1="72.0873" y1="340.1371" x2="411.8096" y2="340.1371">
				<stop  offset="0" style="stop-color:#1D4B9E"/>
				<stop  offset="1" style="stop-color:#36DCF2"/>
			</linearGradient>
			<path class="st0" d="M75.09,327.89l186.68,107.77c6.24,3.6,13.93,3.6,20.18,0l129.87-74.97L206.04,241.9L75.09,317.5
				C71.09,319.81,71.09,325.58,75.09,327.89z"/>
			<linearGradient id="SVGID_2_" gradientUnits="userSpaceOnUse" x1="72.0873" y1="317.6846" x2="411.8095" y2="317.6846">
				<stop  offset="0" style="stop-color:#0F3F84"/>
				<stop  offset="0.6649" style="stop-color:#36DCF2"/>
				<stop  offset="1" style="stop-color:#0F3F84"/>
			</linearGradient>
			<path class="st1" d="M394.31,330.41L206.04,221.71L79.77,294.61l0.35-1.76l-8.03-1.15v6.15l0.01,0
				c-0.05,2.07,0.95,4.15,2.99,5.33l186.68,107.77c6.24,3.6,13.93,3.6,20.18,0l129.87-74.97v-6.29L394.31,330.41z"/>
			<linearGradient id="SVGID_3_" gradientUnits="userSpaceOnUse" x1="72.0873" y1="309.1371" x2="411.8096" y2="309.1371">
				<stop  offset="0" style="stop-color:#1D4B9E"/>
				<stop  offset="1" style="stop-color:#36DCF2"/>
			</linearGradient>
			<path class="st2" d="M75.09,296.89l186.68,107.77c6.24,3.6,13.93,3.6,20.18,0l129.87-74.97L206.04,210.9L75.09,286.5
				C71.09,288.81,71.09,294.58,75.09,296.89z"/>
		</g>
		<g>
			<linearGradient id="SVGID_4_" gradientUnits="userSpaceOnUse" x1="219.9438" y1="51.7233" x2="398.7456" y2="337.866">
				<stop  offset="0" style="stop-color:#1D4B9E"/>
				<stop  offset="0.2378" style="stop-color:#36DCF2"/>
				<stop  offset="0.4757" style="stop-color:#1D4B9E"/>
				<stop  offset="0.6243" style="stop-color:#36DCF2"/>
				<stop  offset="1" style="stop-color:#1D4B9E"/>
			</linearGradient>
			<path class="st3" d="M402.92,167.08L215.27,58.75c-2.15-1.24-4.57-1.01-6.4,0.16l-0.01-0.01l-5.29,3.05l1.66,2.06l0.81,0.13
				v146.77l193.61,111.78l-0.42,0.81l6.83,9.53l5.75-3.31l0.09-147.04C411.91,176.24,408.48,170.3,402.92,167.08z"/>
			<linearGradient id="SVGID_5_" gradientUnits="userSpaceOnUse" x1="303.225" y1="333.0149" x2="303.225" y2="61.2293">
				<stop  offset="0" style="stop-color:#1D4B9E"/>
				<stop  offset="1" style="stop-color:#36DCF2"/>
			</linearGradient>
			<path class="st4" d="M200.29,214.22V67.39c0-4.74,5.13-7.7,9.23-5.33L397.17,170.4c5.57,3.21,8.99,9.15,8.99,15.58l-0.09,147.04
				L200.29,214.22z"/>
		</g>
		<linearGradient id="SVGID_6_" gradientUnits="userSpaceOnUse" x1="207.8335" y1="195.3495" x2="399.4112" y2="195.3495">
			<stop  offset="0" style="stop-color:#1D4B9E"/>
			<stop  offset="1" style="stop-color:#033660"/>
		</linearGradient>
		<polygon class="st5" points="207.83,210.9 399.41,321.54 399.41,179.91 207.83,69.16 		"/>
		<g>
			<g>
				<polygon class="st6" points="357.53,324.35 368.88,330.95 375.26,327.3 363.92,320.69 				"/>
				<polygon class="st6" points="339.46,332.23 352.94,340.07 365.06,333.14 351.58,325.29 				"/>
				<polygon class="st6" points="322.59,322.41 336.08,330.26 348.2,323.32 334.71,315.48 				"/>
				<polygon class="st6" points="305.73,312.6 319.21,320.45 331.33,313.51 317.85,305.66 				"/>
				<polygon class="st6" points="288.86,302.79 302.35,310.63 314.47,303.69 300.98,295.85 				"/>
				<polygon class="st6" points="272,292.97 285.48,300.82 297.6,293.88 284.12,286.03 				"/>
				<polygon class="st6" points="255.13,283.16 268.62,291 280.73,284.06 267.25,276.22 				"/>
				<polygon class="st6" points="238.27,273.34 251.75,281.19 263.87,274.25 250.39,266.4 				"/>
				<polygon class="st6" points="221.4,263.53 234.89,271.37 247,264.44 233.52,256.59 				"/>
				<polygon class="st6" points="280.84,334.91 294.33,342.75 306.45,335.82 292.96,327.97 				"/>
				<polygon class="st6" points="263.98,325.09 277.46,332.94 289.58,326 276.1,318.15 				"/>
				<polygon class="st6" points="247.11,315.28 260.6,323.12 272.71,316.19 259.23,308.34 				"/>
				<polygon class="st6" points="230.25,305.46 243.73,313.31 255.85,306.37 242.37,298.53 				"/>
				<polygon class="st6" points="213.38,295.65 226.87,303.49 238.98,296.56 225.5,288.71 				"/>
				<polygon class="st6" points="189.77,281.91 210,293.68 222.12,286.74 201.89,274.97 				"/>
				<polygon class="st6" points="204.63,253.76 217.93,261.51 230.05,254.57 216.75,246.83 				"/>
				<polygon class="st6" points="187.42,243.75 200.73,251.5 212.85,244.56 199.54,236.82 				"/>
				<polygon class="st6" points="323.53,341.35 337.01,349.2 349.13,342.26 335.64,334.41 				"/>
				<polygon class="st6" points="306.66,331.54 320.14,339.38 332.26,332.44 318.78,324.6 				"/>
				<g>
					<polygon class="st6" points="156.57,281.32 170.05,289.17 182.17,282.23 168.68,274.38 					"/>
					<polygon class="st6" points="139.7,271.5 153.18,279.35 165.3,272.41 151.82,264.57 					"/>
				</g>
				<polygon class="st6" points="173.83,291.03 271.1,347.63 283.22,340.69 185.95,284.09 				"/>
				<polygon class="st6" points="289.8,321.72 303.28,329.57 315.4,322.63 301.91,314.78 				"/>
				<polygon class="st6" points="272.93,311.91 286.41,319.75 298.53,312.82 285.05,304.97 				"/>
				<polygon class="st6" points="256.06,302.09 269.55,309.94 281.67,303 268.18,295.15 				"/>
				<polygon class="st6" points="239.2,292.28 252.68,300.12 264.8,293.19 251.32,285.34 				"/>
				<polygon class="st6" points="222.33,282.46 235.82,290.31 247.94,283.37 234.45,275.53 				"/>
				<polygon class="st6" points="205.47,272.65 218.95,280.49 231.07,273.56 217.59,265.71 				"/>
				<polygon class="st6" points="171.66,252.97 202,270.63 214.12,263.69 183.78,246.04 				"/>
				<polygon class="st6" points="155.72,262.09 187.69,280.7 199.81,273.76 167.84,255.16 				"/>
				<g>
					<polygon class="st6" points="274.63,348.86 306.6,367.46 312.66,364 280.69,345.39 					"/>
					<polygon class="st6" points="285.2,355.01 296.03,361.31 308.15,354.38 297.32,348.08 					"/>
				</g>
				<polygon class="st6" points="297.47,344.58 321.07,358.32 333.19,351.38 309.59,337.64 				"/>
				<polygon class="st6" points="342.13,315.39 353.48,321.99 359.86,318.33 348.52,311.73 				"/>
				<polygon class="st6" points="326.73,306.43 338.08,313.03 344.46,309.37 333.12,302.77 				"/>
				<polygon class="st6" points="311.33,297.46 322.68,304.07 329.06,300.41 317.72,293.81 				"/>
				<polygon class="st6" points="295.93,288.5 307.28,295.11 313.66,291.45 302.32,284.85 				"/>
				<polygon class="st6" points="280.53,279.54 291.88,286.14 298.26,282.49 286.92,275.88 				"/>
				<polygon class="st6" points="265.13,270.58 276.48,277.18 282.86,273.52 271.52,266.92 				"/>
				<polygon class="st6" points="249.73,261.62 261.07,268.22 267.46,264.56 256.11,257.96 				"/>
				<polygon class="st6" points="234.33,252.65 245.67,259.26 252.06,255.6 240.71,249 				"/>
				<polygon class="st6" points="218.93,243.69 230.27,250.3 236.66,246.64 225.31,240.04 				"/>
				<polygon class="st6" points="203.53,234.73 214.87,241.33 221.26,237.68 209.91,231.07 				"/>
			</g>
			<path class="st6" d="M251.37,341.64l-66.25-38.25c-1.96-1.13-4.38-1.13-6.34,0l-28.9,16.53c-1.51,0.87-1.51,3.05,0,3.93
				l66.46,38.37c1.88,1.08,4.19,1.08,6.07,0l28.96-16.57C252.92,344.76,252.92,342.54,251.37,341.64z"/>
		</g>
		<path class="st7" d="M315.73,129.07c0.59,1,1.59,1.5,2.22,1.12s0.67-1.49,0.08-2.49c-0.59-1-1.59-1.5-2.22-1.12
			C315.17,126.96,315.14,128.07,315.73,129.07z"/>
		<g>
			<linearGradient id="SVGID_7_" gradientUnits="userSpaceOnUse" x1="186.8935" y1="172.5131" x2="404.3584" y2="172.5131">
				<stop  offset="0" style="stop-color:#25F26E"/>
				<stop  offset="1" style="stop-color:#36DCF2"/>
			</linearGradient>
			<polygon class="st8" points="404.36,258.16 404.36,212.42 186.89,86.87 186.89,132.54 			"/>
			<linearGradient id="SVGID_8_" gradientUnits="userSpaceOnUse" x1="186.8935" y1="148.9794" x2="406.7184" y2="148.9794">
				<stop  offset="0" style="stop-color:#5FFF94"/>
				<stop  offset="1" style="stop-color:#69FFFF"/>
			</linearGradient>
			<polygon class="st9" points="186.89,86.87 189.19,85.54 406.72,211.13 404.36,212.42 			"/>
			<linearGradient id="SVGID_9_" gradientUnits="userSpaceOnUse" x1="299.0992" y1="151.6487" x2="305.6627" y2="140.2805">
				<stop  offset="0" style="stop-color:#FFFFFF"/>
				<stop  offset="0.1223" style="stop-color:#FFFFFF;stop-opacity:0.8777"/>
				<stop  offset="1" style="stop-color:#FFFFFF;stop-opacity:0"/>
			</linearGradient>
			<polygon class="st10" points="186.89,86.87 200.34,79.47 417.87,205.06 404.36,212.42 			"/>
			<linearGradient id="SVGID_10_" gradientUnits="userSpaceOnUse" x1="405.5384" y1="258.1595" x2="405.5384" y2="211.1274">
				<stop  offset="0" style="stop-color:#2ADB65"/>
				<stop  offset="1" style="stop-color:#11BECC"/>
			</linearGradient>
			<polygon class="st11" points="404.36,212.42 406.72,211.13 406.72,256.8 404.36,258.16 			"/>
			<linearGradient id="SVGID_11_" gradientUnits="userSpaceOnUse" x1="404.3584" y1="231.1553" x2="419.2226" y2="231.1553">
				<stop  offset="0" style="stop-color:#FFFFFF"/>
				<stop  offset="0.1223" style="stop-color:#FFFFFF;stop-opacity:0.8777"/>
				<stop  offset="1" style="stop-color:#FFFFFF;stop-opacity:0"/>
			</linearGradient>
			<polygon class="st12" points="404.36,212.42 419.22,204.15 419.22,249.82 404.36,258.16 			"/>
			<g>
				<path class="st13" d="M213.98,130.86c0,2.68-1.63,3.93-3.64,2.79c-2.01-1.13-3.64-4.22-3.64-6.9c0-2.68,1.63-3.93,3.64-2.79
					C212.35,125.09,213.98,128.18,213.98,130.86z"/>
				<path class="st13" d="M225.9,137.57c0,2.68-1.63,3.93-3.64,2.79c-2.01-1.13-3.64-4.22-3.64-6.9c0-2.68,1.63-3.93,3.64-2.79
					C224.27,131.81,225.9,134.9,225.9,137.57z"/>
				<path class="st13" d="M237.82,144.29c0,2.68-1.63,3.93-3.64,2.79c-2.01-1.13-3.64-4.22-3.64-6.9c0-2.68,1.63-3.93,3.64-2.79
					C236.19,138.53,237.82,141.62,237.82,144.29z"/>
				
					<ellipse transform="matrix(0.9203 -0.3911 0.3911 0.9203 -38.6541 108.114)" class="st13" cx="246.1" cy="148.96" rx="3.18" ry="5.56"/>
				<path class="st13" d="M261.67,157.73c0,2.68-1.63,3.93-3.64,2.79c-2.01-1.13-3.64-4.22-3.64-6.9c0-2.68,1.63-3.93,3.64-2.79
					C260.04,151.96,261.67,155.05,261.67,157.73z"/>
				<path class="st13" d="M273.59,164.44c0,2.68-1.63,3.93-3.64,2.79s-3.64-4.22-3.64-6.9c0-2.68,1.63-3.93,3.64-2.79
					S273.59,161.77,273.59,164.44z"/>
				<path class="st13" d="M285.51,171.16c0,2.68-1.63,3.93-3.64,2.79c-2.01-1.13-3.64-4.22-3.64-6.9c0-2.68,1.63-3.93,3.64-2.79
					C283.88,165.4,285.51,168.49,285.51,171.16z"/>
				<path class="st13" d="M297.43,177.88c0,2.68-1.63,3.93-3.64,2.79c-2.01-1.13-3.64-4.22-3.64-6.9s1.63-3.93,3.64-2.79
					C295.8,172.12,297.43,175.2,297.43,177.88z"/>
				<path class="st13" d="M309.35,184.6c0,2.68-1.63,3.93-3.64,2.79c-2.01-1.13-3.64-4.22-3.64-6.9c0-2.68,1.63-3.93,3.64-2.79
					C307.72,178.83,309.35,181.92,309.35,184.6z"/>
				<path class="st13" d="M321.27,191.31c0,2.68-1.63,3.93-3.64,2.79c-2.01-1.13-3.64-4.22-3.64-6.9c0-2.68,1.63-3.93,3.64-2.79
					C319.64,185.55,321.27,188.64,321.27,191.31z"/>
				<path class="st13" d="M333.19,198.03c0,2.68-1.63,3.93-3.64,2.79c-2.01-1.13-3.64-4.22-3.64-6.9s1.63-3.93,3.64-2.79
					C331.56,192.27,333.19,195.36,333.19,198.03z"/>
				<path class="st13" d="M345.12,204.75c0,2.68-1.63,3.93-3.64,2.79c-2.01-1.13-3.64-4.22-3.64-6.9c0-2.68,1.63-3.93,3.64-2.79
					C343.49,198.99,345.12,202.07,345.12,204.75z"/>
				<path class="st13" d="M357.04,211.47c0,2.68-1.63,3.93-3.64,2.79c-2.01-1.13-3.64-4.22-3.64-6.9c0-2.68,1.63-3.93,3.64-2.79
					C355.41,205.7,357.04,208.79,357.04,211.47z"/>
				<path class="st13" d="M368.96,218.19c0,2.68-1.63,3.93-3.64,2.79c-2.01-1.13-3.64-4.22-3.64-6.9c0-2.68,1.63-3.93,3.64-2.79
					C367.33,212.42,368.96,215.51,368.96,218.19z"/>
				<path class="st13" d="M380.88,224.9c0,2.68-1.63,3.93-3.64,2.79c-2.01-1.13-3.64-4.22-3.64-6.9c0-2.68,1.63-3.93,3.64-2.79
					C379.25,219.14,380.88,222.23,380.88,224.9z"/>
			</g>
		</g>
		<g>
			<linearGradient id="SVGID_12_" gradientUnits="userSpaceOnUse" x1="258.7896" y1="231.9622" x2="320.5478" y2="231.9622">
				<stop  offset="0" style="stop-color:#F96E8D"/>
				<stop  offset="1" style="stop-color:#FFEB33"/>
			</linearGradient>
			<polygon class="st14" points="320.55,263.05 320.55,236.53 258.79,200.87 258.79,227.37 			"/>
			<polygon class="st15" points="258.79,200.87 264.2,197.74 325.97,233.41 320.55,236.53 			"/>
			<polygon class="st16" points="320.55,236.53 325.97,233.41 325.97,259.91 320.55,263.05 			"/>
			<g>
				<path class="st17" d="M264.34,212.69l2.59,1.48c1.88,1.07,2.36,2.83,2.36,4.04c0,1.23-0.7,1.99-1.81,1.52l2.09,5.59l-1.25-0.71
					l-1.87-5.32l-1.11-0.63v4.25l-1-0.57V212.69z M265.34,217.51l1.31,0.75c0.79,0.45,1.58,0.66,1.58-0.65c0-1.31-0.79-2-1.58-2.46
					l-1.31-0.75V217.51z"/>
				<path class="st17" d="M271.21,216.61l4.75,2.71v1.23l-3.75-2.14v2.88l3.49,1.99v1.23l-3.49-1.99v3.09l3.94,2.25v1.23l-4.94-2.82
					V216.61z"/>
				<path class="st17" d="M284.35,228.36v4.75c-0.72,0.16-1.89-0.19-2.79-0.7c-2.49-1.42-3.94-4.58-3.94-7.32
					c0-2.86,1.59-4.16,3.84-2.88c1.35,0.77,2.17,1.72,2.74,2.82l-0.71,0.59c-0.6-1.11-1.3-1.76-2.04-2.18
					c-1.68-0.96-2.77,0.15-2.77,2.26c0,2.18,1.24,4.55,2.86,5.47c0.7,0.4,1.36,0.6,1.81,0.53v-2.68l-1.63-0.93v-1.23L284.35,228.36z
					"/>
				<path class="st17" d="M286.7,225.44l1,0.57v9.64l-1-0.57V225.44z"/>
				<path class="st17" d="M290.32,235.14c0.35,0.91,0.97,1.59,1.56,1.93c0.65,0.37,1.46,0.29,1.46-0.77c0-2.22-3.63-2.91-3.63-6.67
					c0-1.13,0.73-2.28,2.49-1.27c0.8,0.46,1.57,1.11,2.12,2.31l-0.81,0.5c-0.25-0.65-0.74-1.27-1.31-1.59
					c-1.1-0.63-1.43,0.05-1.43,0.65c0,2.44,3.63,3.05,3.63,6.52c0,1.87-1.14,2.33-2.56,1.53c-0.95-0.54-1.85-1.48-2.35-2.67
					L290.32,235.14z"/>
				<path class="st17" d="M297.95,233.09l-2.37-1.35v-1.23l5.74,3.27v1.23l-2.37-1.35v8.42l-1-0.57V233.09z"/>
				<path class="st17" d="M302.9,234.69l4.75,2.71v1.23l-3.75-2.14v2.88l3.49,1.99v1.23l-3.49-1.99v3.09l3.94,2.25v1.23l-4.94-2.82
					V234.69z"/>
				<path class="st17" d="M309.77,238.61l2.59,1.48c1.88,1.07,2.36,2.83,2.36,4.04c0,1.23-0.7,1.99-1.81,1.52l2.09,5.59l-1.25-0.71
					l-1.87-5.32l-1.11-0.63v4.25l-1-0.57V238.61z M310.77,243.43l1.31,0.75c0.79,0.45,1.58,0.66,1.58-0.65s-0.79-2-1.58-2.46
					l-1.31-0.75V243.43z"/>
			</g>
		</g>
		
			<radialGradient id="SVGID_13_" cx="249.7272" cy="299.5078" r="77.0218" gradientTransform="matrix(1 0 0 0.6484 0 104.7364)" gradientUnits="userSpaceOnUse">
			<stop  offset="0" style="stop-color:#25F26E"/>
			<stop  offset="0.0826" style="stop-color:#29EC91;stop-opacity:0.9174"/>
			<stop  offset="0.1735" style="stop-color:#2DE7AF;stop-opacity:0.8265"/>
			<stop  offset="0.2743" style="stop-color:#31E3C7;stop-opacity:0.7257"/>
			<stop  offset="0.3868" style="stop-color:#33E0DA;stop-opacity:0.6132"/>
			<stop  offset="0.5176" style="stop-color:#35DEE8;stop-opacity:0.4824"/>
			<stop  offset="0.6833" style="stop-color:#36DCF0;stop-opacity:0.3167"/>
			<stop  offset="1" style="stop-color:#36DCF2;stop-opacity:0"/>
		</radialGradient>
		<ellipse class="st18" cx="249.73" cy="298.94" rx="77.02" ry="49.94"/>
		<g>
			<path class="st19" d="M230.25,188.47c0,0-1.39,4.65-1.53,6.36s4.31,12.98,4.31,12.98l2.12-15.74l-2.74-3.96L230.25,188.47z"/>
			<linearGradient id="SVGID_14_" gradientUnits="userSpaceOnUse" x1="229.8471" y1="182.2125" x2="238.2501" y2="182.2125">
				<stop  offset="0" style="stop-color:#23BEE2"/>
				<stop  offset="1" style="stop-color:#0771A5"/>
			</linearGradient>
			<path class="st20" d="M238.25,174.19c-4.03-0.7-6.82,1.33-7.03,5.53l-0.02,0l-1.35,8.88c0,0,1.94,2.1,3.83,1.72
				c1.89-0.37,3.65-1.59,3.74-4c0.09-2.41,0.83-7.77,0.83-7.77l-1.02,0.17C237.85,176.25,238.25,174.19,238.25,174.19z"/>
			
				<linearGradient id="SVGID_15_" gradientUnits="userSpaceOnUse" x1="-1545.8406" y1="302.4234" x2="-1528.0516" y2="302.4234" gradientTransform="matrix(-1 0 0 1 -1280.327 0)">
				<stop  offset="0" style="stop-color:#083A63"/>
				<stop  offset="1" style="stop-color:#062638"/>
			</linearGradient>
			<path class="st21" d="M247.96,300.59c0.06,1.69-1.61,7.04,3.21,6.95c3.74,0.45,11.51-5.73,13.72-7.01
				c2.22-1.28-1.53-4.77-10.84-2.5C252.48,298.77,247.96,300.59,247.96,300.59z"/>
			
				<linearGradient id="SVGID_16_" gradientUnits="userSpaceOnUse" x1="-1530.0798" y1="292.7309" x2="-1512.2908" y2="292.7309" gradientTransform="matrix(-1 0 0 1 -1280.327 0)">
				<stop  offset="0" style="stop-color:#083A63"/>
				<stop  offset="1" style="stop-color:#062638"/>
			</linearGradient>
			<path class="st22" d="M232.2,290.9c0.06,1.69-1.61,7.04,3.21,6.95c3.74,0.45,11.51-5.73,13.72-7.01
				c2.22-1.28-1.53-4.77-10.84-2.5C236.72,289.08,232.2,290.9,232.2,290.9z"/>
			<path class="st23" d="M293.53,177.52l-21.32,21.33l-3.15-3.36c0,0-9.54,1.67-6.23,5.46c3.31,3.78,6.57,5.38,10.4,5.73
				c3.2,0.3,24.27-25.57,24.27-25.57c1.44-0.83,4.48-3.82,5.1-8.47c-0.33-1.58-2.46-4.87-4.79-5.24c-1.63-0.04-2.88,3.79-3.3,5.14
				c-0.4,1.28-1,0.3-1.94-0.64c-0.95-0.95-2.01-0.3-0.38,2.42C292.77,175.3,292.25,176.69,293.53,177.52z"/>
			
				<linearGradient id="SVGID_17_" gradientUnits="userSpaceOnUse" x1="-1537.9464" y1="262.6953" x2="-1510.312" y2="262.6953" gradientTransform="matrix(-1 0 0 1 -1280.327 0)">
				<stop  offset="0" style="stop-color:#FFBA1F"/>
				<stop  offset="3.716052e-03" style="stop-color:#FAB820"/>
				<stop  offset="0.0443" style="stop-color:#CDA02C"/>
				<stop  offset="0.0887" style="stop-color:#A38B37"/>
				<stop  offset="0.1378" style="stop-color:#7D7841"/>
				<stop  offset="0.1911" style="stop-color:#5D6749"/>
				<stop  offset="0.2501" style="stop-color:#415950"/>
				<stop  offset="0.3168" style="stop-color:#2B4E56"/>
				<stop  offset="0.3945" style="stop-color:#1A455B"/>
				<stop  offset="0.4907" style="stop-color:#0F3F5E"/>
				<stop  offset="0.6256" style="stop-color:#083C60"/>
				<stop  offset="1" style="stop-color:#063B60"/>
			</linearGradient>
			<path class="st24" d="M233.4,222.28l5.73-0.63l0.55,2.79l6.58,1.3l11.37,2.27l-1,38.77l-1.82,35.78c0,0-2.99,2.66-7.08,0
				c0,0-4.79-27.38-1.46-37.15c-1.22-3.94-1.04-10.08-3.15-13.96l-0.29,14.67l-3.69,29.04c-7.14,1.77-7.08-2.52-7.08-2.52
				c-1.55-15.22,0.8-29.95,0.8-29.95C233,253.58,225.97,228.5,233.4,222.28z"/>
			
				<linearGradient id="SVGID_18_" gradientUnits="userSpaceOnUse" x1="-1541.401" y1="205.337" x2="-1509.0437" y2="205.337" gradientTransform="matrix(-1 0 0 1 -1280.327 0)">
				<stop  offset="0" style="stop-color:#ECFF7D"/>
				<stop  offset="0.3784" style="stop-color:#36DCF2"/>
				<stop  offset="1" style="stop-color:#34A8E2"/>
			</linearGradient>
			<path class="st25" d="M248.94,177.16c-1.77,1.59-8.8,0.34-8.68-2.27c-1.61-0.63-2.76-1.18-4.42-0.75
				c-3.94,1.02-3.31,7.19-3.68,10.39c-0.58,5.01,0.54,15.81,0.52,26.84c-0.01,5.51-3.82,11.42-3.96,15.38
				c0,3.7,9.26,8.32,16.69,9.68c5.14,0.94,13.2-0.93,13.16-2.57c-0.04-1.64,0.38-27.3,1.61-31.85c1.22-4.55,1.34-16.07-0.55-18.38
				C257.22,180.7,248.94,177.16,248.94,177.16z"/>
			<g>
				<path class="st19" d="M256.75,156.1c1.25,2.75,0.03,4.2,0.12,6.22c0,1.79,1.34,9.27-2.18,10.07c-2.5,0.56-4.16,0.27-4.16,0.27
					l-1.81,5.15c-1,1.96-9.27,1.1-8.61-3.02l0.4-3.61c-1.88-0.87-5.35-3.98-5.35-10.13c0-6.15,6.55-10.88,12.46-10.88
					C253.53,150.17,256.4,155.34,256.75,156.1z"/>
				
					<linearGradient id="SVGID_19_" gradientUnits="userSpaceOnUse" x1="-1537.7424" y1="158.5846" x2="-1513.7251" y2="158.5846" gradientTransform="matrix(-1 0 0 1 -1280.327 0)">
					<stop  offset="0" style="stop-color:#40FFA8"/>
					<stop  offset="0.0555" style="stop-color:#3FD98D"/>
					<stop  offset="0.1263" style="stop-color:#3FAF71"/>
					<stop  offset="0.2034" style="stop-color:#3E8B57"/>
					<stop  offset="0.286" style="stop-color:#3E6C42"/>
					<stop  offset="0.3757" style="stop-color:#3E5230"/>
					<stop  offset="0.4753" style="stop-color:#3D3F23"/>
					<stop  offset="0.5903" style="stop-color:#3D3119"/>
					<stop  offset="0.7344" style="stop-color:#3D2914"/>
					<stop  offset="1" style="stop-color:#3D2712"/>
				</linearGradient>
				<path class="st26" d="M251.58,163.89c-0.97-0.57-3.29,2.31-0.3,4.91c0.12,0.71-0.35,1.81-1.1,2.64
					c-0.75,0.83,0.63,0.91-1.38,1.93c-2.01,1.02-5.54,0.31-6.22,0.58c0.02-0.7-1.19-0.33-2.22-2.35c-1.38-1.82-3.31-1.83-4.92-5.55
					c0,0-1.17-2.13-1.13-4.23c0,0-0.56,0.92-0.49,2.71c0,0-2.04-5.99,2.8-9.8c0,0-1.66,0.08-2.96,1.42c0,0,1.82-2.92,5.03-3.24
					c1.91-0.86,1.54-2.32,5.53-2.93c4-0.62,3.79-3.35,3.15-4.46c0,0,2.41,1.89,2.23,3.48c0,0,1.56-2.82-0.65-5.78
					c0,0,3.68,1.68,3.52,6.95c0,0,0.78-2.11,0.31-4.09c0.91,0.3,5.96,6.86,4.31,10.93c-1.65,4.07-5.31,3.9-5.21,5.25
					C251.97,163.6,251.58,163.89,251.58,163.89z"/>
			</g>
			
				<linearGradient id="SVGID_20_" gradientUnits="userSpaceOnUse" x1="-1549.7202" y1="192.1284" x2="-1532.8658" y2="192.1284" gradientTransform="matrix(-1 0 0 1 -1280.327 0)">
				<stop  offset="0" style="stop-color:#23BEE2"/>
				<stop  offset="1" style="stop-color:#0771A5"/>
			</linearGradient>
			<path class="st27" d="M256.86,181.46c4.83,1.45,8.03,6.68,12.53,13.55c-0.08,1.5-3.07,6.63-6.54,8c0,0-5.79-5.91-7.84-9.1
				C251.77,188.84,251.08,179.72,256.86,181.46z"/>
		</g>
	</g>
</g>
<g id="DESIGNED_BY_FREEPIK">
</g>
</svg>
